<?xml version="1.0" standalone="no"?>
<!DOCTYPE svg PUBLIC "-//W3C//DTD SVG 20010904//EN"
 "http://www.w3.org/TR/2001/REC-SVG-20010904/DTD/svg10.dtd">
<svg version="1.0" xmlns="http://www.w3.org/2000/svg"
 width="512.000000pt" height="512.000000pt" viewBox="0 0 512.000000 512.000000"
 preserveAspectRatio="xMidYMid meet">
<metadata>
Created by potrace 1.11, written by Peter Selinger 2001-2013
</metadata>
<g transform="translate(0.000000,512.000000) scale(0.100000,-0.100000)"
fill="#000000" stroke="none">
<path d="M407 5040 c-88 -34 -144 -85 -185 -170 l-27 -55 0 -910 0 -910 29
-52 c39 -71 90 -121 156 -152 80 -37 230 -42 315 -11 82 31 164 113 194 193
21 57 21 64 21 937 0 873 0 880 -21 937 -30 79 -113 162 -192 192 -77 28 -220
29 -290 1z"/>
<path d="M1397 5036 c-87 -36 -133 -80 -175 -166 l-27 -55 0 -855 0 -855 24
-52 c32 -71 111 -144 186 -172 51 -19 76 -22 160 -19 83 2 110 8 155 29 70 33
126 89 159 159 l26 55 0 855 0 855 -26 55 c-33 70 -89 126 -159 159 -47 22
-71 26 -160 29 -92 2 -112 -1 -163 -22z"/>
<path d="M2417 5036 c-106 -44 -168 -108 -207 -213 -20 -54 -20 -61 -18 -2276
l3 -2222 26 -56 c37 -79 90 -133 167 -171 61 -30 75 -33 162 -33 88 0 101 3
162 33 77 37 128 90 167 172 l26 55 0 2235 0 2235 -26 56 c-37 79 -90 133
-166 171 -55 27 -79 32 -152 35 -73 3 -94 0 -144 -21z"/>
<path d="M3398 5037 c-70 -30 -106 -59 -147 -117 -62 -91 -62 -86 -59 -626 l3
-489 27 -55 c35 -72 86 -123 156 -157 52 -26 66 -28 172 -28 106 0 120 2 172
28 70 34 121 85 156 157 l27 55 0 505 0 505 -27 56 c-36 71 -89 125 -158 158
-47 22 -71 26 -160 29 -92 2 -112 -1 -162 -21z"/>
<path d="M4401 5038 c-77 -29 -162 -115 -190 -192 -21 -58 -22 -59 -19 -955
l3 -896 29 -52 c39 -70 88 -117 155 -151 51 -25 66 -27 171 -27 103 0 121 3
170 26 69 33 122 87 158 158 l27 56 2 895 2 895 -24 60 c-32 79 -109 154 -188
183 -79 30 -219 30 -296 0z"/>
<path d="M3398 3237 c-94 -40 -147 -93 -185 -187 l-23 -59 2 -1343 3 -1343 23
-50 c29 -63 92 -129 157 -163 46 -25 59 -27 170 -27 109 0 125 2 175 26 67 33
123 86 158 153 l27 51 0 1360 0 1360 -27 56 c-36 71 -89 125 -158 158 -47 22
-71 26 -160 29 -92 2 -112 -1 -162 -21z"/>
<path d="M1448 2547 c-94 -27 -178 -100 -226 -197 -24 -48 -27 -67 -27 -150 0
-84 3 -102 28 -153 36 -73 106 -143 177 -176 47 -22 69 -26 150 -26 83 0 102
3 151 28 74 36 140 101 175 173 26 52 29 70 29 154 0 84 -3 102 -28 152 -36
73 -101 139 -173 174 -67 33 -181 42 -256 21z"/>
<path d="M430 2351 c-89 -29 -164 -92 -208 -174 l-27 -52 0 -915 0 -915 28
-53 c33 -64 85 -114 152 -150 47 -25 59 -27 175 -27 116 0 129 2 176 27 64 34
118 88 152 152 l27 51 0 915 0 915 -27 52 c-34 64 -88 117 -153 151 -44 23
-64 26 -160 29 -60 1 -121 -1 -135 -6z"/>
<path d="M4395 2335 c-80 -33 -154 -109 -184 -188 l-21 -59 2 -891 3 -892 27
-56 c36 -71 89 -125 158 -158 45 -21 72 -27 155 -29 84 -3 109 0 160 19 75 28
154 101 186 172 l24 52 0 905 0 905 -26 55 c-33 70 -89 126 -159 159 -47 22
-71 26 -160 29 -93 2 -112 0 -165 -23z"/>
<path d="M1395 1535 c-80 -33 -154 -109 -184 -189 -21 -57 -22 -65 -19 -550
l3 -491 26 -55 c33 -70 89 -126 159 -159 45 -21 72 -27 155 -29 84 -3 109 0
160 19 75 28 154 101 186 172 l24 52 0 505 0 505 -28 57 c-35 71 -87 123 -157
157 -47 22 -71 26 -160 29 -93 2 -112 0 -165 -23z"/>
</g>
</svg>
